# xmcd
# 
# Track frame offsets:
#     150
#     15947
#     30575
#     48602
#     61780
#     75345
#     91505
#     105810
#     125542
#     140742
# 
# Disc length: 2063
# 
# Revision: 3
# Processed by: cddbd v1.5.2PL0 Copyright (c) Steve Scherf et al.
# Submitted via: BonkEnc v1.0beta4
# 
DISCID=68080d0a
DTITLE=Little Texas - Little Texas
DYEAR=1997
DGENRE=Country
TTITLE0=Loud And Proud
TTITLE1=Bad For Us
TTITLE2=Ain't No Time To Be Afraid
TTITLE3=Long Way Down
TTITLE4=Your Mama Won't Let Me
TTITLE5=All In The Line Of Love
TTITLE6=Living In A Bullseye
TTITLE7=The Call
TTITLE8=Yesterday's Gone Forever
TTITLE9=If I Don't Get Enough Of You
EXTD=
EXTT0=
EXTT1=
EXTT2=
EXTT3=
EXTT4=
EXTT5=
EXTT6=
EXTT7=
EXTT8=
EXTT9=
PLAYORDER=
